<?xml version="1.0" encoding="UTF-8"?>
<svg width="64px" height="64px" viewBox="0 0 64 64" version="1.1" xmlns="http://www.w3.org/2000/svg" xmlns:xlink="http://www.w3.org/1999/xlink">
    <!-- Generator: Sketch 47.1 (45422) - http://www.bohemiancoding.com/sketch -->
    <title>nosotros</title>
    <desc>Created with Sketch.</desc>
    <defs></defs>
    <g id="Page-1" stroke="none" stroke-width="1" fill="none" fill-rule="evenodd">
        <g id="nosotros" fill-rule="nonzero" fill="#000000">
            <g id="005-light-bulb" transform="translate(6.000000, 4.000000)">
                <path d="M30.0678004,9.31004204 C29.0495944,9.10397751 28.0174148,9 27.0001403,9 C18.7287302,9 12,15.8265964 12,24.2204174 C12,29.6622223 14.8832092,34.7259272 19.5252226,37.4331236 C19.7059471,37.5389916 20.0618069,37.8140594 20.3328938,38.0314669 L20.3328938,42.0771374 C20.3328938,44.792841 22.5090413,47 25.185442,47 L29.0998992,47 C31.7753682,47 33.9505842,44.792841 33.9505842,42.0771374 L33.9505842,37.9662446 C34.1704347,37.7166986 34.3902853,37.4917291 34.4713318,37.4359593 C39.9144954,34.2646452 42.7930468,28.1053954 41.8093088,21.7466978 C40.846997,15.5307331 36.1276633,10.5331957 30.0678004,9.31004204 Z M33.5015675,35.7297828 C33.0525507,35.9953981 32.4628669,36.6911022 32.2299744,36.977513 C32.0874442,37.1542748 32.0101239,37.3735728 32.0101239,37.6023233 L32.0101239,42.0771374 C32.0101239,43.7058033 30.7040627,45.031044 29.0998992,45.031044 L25.185442,45.031044 C23.5803468,45.031044 22.2733541,43.7058033 22.2733541,42.0771374 L22.2733541,37.5578966 C22.2733541,37.2601428 22.1410712,36.9794035 21.9128365,36.792244 C21.7451539,36.6542375 20.8871779,35.9556976 20.4912607,35.7250566 C16.45011,33.3676028 13.9395288,28.9599015 13.9395288,24.2194722 C13.9395288,16.9117435 19.797241,10.9680107 26.9992088,10.9680107 C27.8888581,10.9680107 28.7943442,11.0587548 29.6877198,11.2392975 C34.8728385,12.2875799 39.0686299,16.7312007 39.8912062,22.0482326 C40.7501137,27.5977961 38.2432588,32.9668167 33.5015675,35.7297828 L33.5015675,35.7297828 Z" id="Shape"></path>
                <path d="M32.1396187,50 L22.8603813,50 C22.3847771,50 22,50.4472169 22,51 C22,51.5527831 22.3847771,52 22.8603813,52 L32.1396187,52 C32.6152229,52 33,51.5527831 33,51 C33,50.4472169 32.6152229,50 32.1396187,50 Z" id="Shape"></path>
                <path d="M32.1396187,56 L22.8603813,56 C22.3847771,56 22,56.4472169 22,57 C22,57.5527831 22.3847771,58 22.8603813,58 L32.1396187,58 C32.6152229,58 33,57.5527831 33,57 C33,56.4472169 32.6152229,56 32.1396187,56 Z" id="Shape"></path>
                <path d="M4.67330821,28.0449853 L0.700965026,29.2118553 C0.168659362,29.367614 -0.123281588,29.8850496 0.0499367089,30.3664054 C0.189095228,30.7544821 0.586134919,31 1.01431498,31 C1.11844058,31 1.22353932,30.9859201 1.32669179,30.9551204 L5.29903497,29.7882504 C5.83134064,29.6324917 6.12328159,29.1150562 5.95006329,28.6337003 C5.77587186,28.1505844 5.20172132,27.8892267 4.67330821,28.0449853 L4.67330821,28.0449853 Z" id="Shape"></path>
                <path d="M5.29903497,14.212254 L1.32669179,13.0456442 C0.794386129,12.8881607 0.223155005,13.1512198 0.0499367089,13.6342279 C-0.123281588,14.1154764 0.168659362,14.6327966 0.700965026,14.7885206 L4.67330821,15.9551304 C4.77743381,15.9859233 4.88253255,16 4.98568502,16 C5.41289194,16 5.80993164,15.7545368 5.95006329,15.3665467 C6.12328159,14.8852982 5.83134064,14.367978 5.29903497,14.212254 L5.29903497,14.212254 Z" id="Shape"></path>
                <path d="M13.0968275,5 C13.2817299,5 13.4666324,4.94150752 13.6272284,4.82092304 C14.0308887,4.51676216 14.1211697,3.93093752 13.8268883,3.51159146 L11.6358377,0.386293487 C11.3424244,-0.0330525697 10.7781681,-0.124840762 10.3727716,0.179320112 C9.96911131,0.483480986 9.8788303,1.06930563 10.1731117,1.48865168 L12.3641623,4.61394966 C12.5421201,4.86591725 12.8173036,5 13.0968275,5 Z" id="Shape"></path>
                <path d="M52.2992042,29.2113612 L48.3267011,28.0441688 C47.7981372,27.8901276 47.221876,28.1515576 47.0495817,28.6330464 C46.8772874,29.1145353 47.1683382,29.6321139 47.7007958,29.7879156 L51.6732989,30.955108 C51.7764808,30.9859162 51.8835564,31 51.9857649,31 C52.4130937,31 52.8112201,30.7544143 52.9504183,30.3662304 C53.1227126,29.8847415 52.8316618,29.3671629 52.2992042,29.2113612 Z" id="Shape"></path>
                <path d="M51.6732989,13.0441688 L47.7007958,14.2113612 C47.1683382,14.3671629 46.8772874,14.8847415 47.0495817,15.3662304 C47.1878065,15.7544143 47.5859329,16 48.0142351,16 C48.117417,16 48.2244926,15.9859162 48.3267011,15.955108 L52.2992042,14.7879156 C52.8316618,14.6321139 53.1227126,14.1145353 52.9504183,13.6330464 C52.7800708,13.1515576 52.2077033,12.8901276 51.6732989,13.0441688 L51.6732989,13.0441688 Z" id="Shape"></path>
                <path d="M41.3643438,0.386293487 L39.17307,3.51159146 C38.8795105,3.93093752 38.9680995,4.51676216 39.3728294,4.82092304 C39.5335054,4.94150752 39.7193685,5 39.9043631,5 C40.1831577,5 40.4593468,4.86591725 40.6356562,4.61394966 L42.82693,1.48865168 C43.1204895,1.06930563 43.0319005,0.483480986 42.6271706,0.179320112 C42.2250463,-0.124840762 41.6579033,-0.0330525697 41.3643438,0.386293487 Z" id="Shape"></path>
                <path d="M31.5390494,14.1475694 C31.0669125,13.8599592 30.440311,14.0042453 30.1478969,14.4803893 C29.8574259,14.9517237 30.0080045,15.5683061 30.4840273,15.8578402 C32.9865474,17.3728438 34.9625279,19.6852683 36.0496087,22.3699509 C36.2079591,22.7614471 36.5868344,23 36.9880537,23 C37.1143455,23 37.2406372,22.9769142 37.3640146,22.927857 C37.8837538,22.7220089 38.1343944,22.1390932 37.9274702,21.6263967 C36.680096,18.5434846 34.41073,15.8857355 31.5390494,14.1475694 L31.5390494,14.1475694 Z" id="Shape"></path>
            </g>
        </g>
    </g>
</svg>