<?xml version="1.0" encoding="utf-8"?>
<!-- Generator: Adobe Illustrator 21.0.2, SVG Export Plug-In . SVG Version: 6.00 Build 0)  -->
<svg version="1.1" id="Capa_1" xmlns="http://www.w3.org/2000/svg" xmlns:xlink="http://www.w3.org/1999/xlink" x="0px" y="0px"
	 viewBox="0 0 128 96" style="enable-background:new 0 0 128 96;" xml:space="preserve">
<style type="text/css">
	.st0{fill:#E10B17;}
	.st1{fill:#FFFFFF;}
</style>
<g>
	<g>
		<path class="st0" d="M66.6,90.3c-3.7,0-7.6-0.3-11.6-1c-13-2.2-26.4-9.4-36.8-19.8C8.4,59.8,2.8,48.7,3,39.8
			c0.2-8.9,6.3-14.5,17-15.7c34.4-3.9,50.5-10,61.1-14c2.8-1.1,5.2-2,7.4-2.6c13.1-3.9,23.2-3.5,29.3,1.1c4.4,3.4,6.6,8.8,6.4,16.1
			c-0.4,16.4-3.9,23.8-7.9,32.3l-0.7,1.5c-2.2,4.7-7.2,13.6-16.2,20.7C90.2,86.6,79.1,90.3,66.6,90.3z"/>
	</g>
	<path class="st1" d="M89.4,10.1c-2.1,0.6-4.5,1.5-7.3,2.6c-10.8,4.1-27.1,10.2-61.8,14.2C11,27.9,5.9,32.4,5.8,39.9
		C5.3,56.8,28.6,82.2,55.4,86.6c16.7,2.8,30.9-0.5,42.4-9.6c8.5-6.8,13.3-15.3,15.4-19.7l0.7-1.5c4-8.6,7.2-15.4,7.7-31.2
		c0.2-6.4-1.6-11-5.3-13.8C110.9,6.7,101.6,6.5,89.4,10.1L89.4,10.1z"/>
	<g>
		<path class="st0" d="M94.3,44.9c-0.5-0.6-1.1-1.1-1.9-1.5c-0.8-0.4-1.6-0.5-2.6-0.5c-0.6,0-1.2,0.1-1.8,0.2
			c-0.6,0.1-1.1,0.3-1.6,0.5l-0.1,0l-0.1-0.1c-0.3-0.4-0.8-0.6-1.3-0.6c-0.7,0-1.2,0.2-1.7,0.7c-0.5,0.4-0.8,1-0.9,1.8l-2.7,14.2
			c-0.1,0.8-0.1,1.4,0.1,1.8c0.2,0.4,0.7,0.6,1.5,0.6c0.6,0,1.1-0.2,1.5-0.6c0.5-0.4,0.8-1,0.9-1.9l0.7-3.5l0.2,0.1
			c0.4,0.2,0.8,0.3,1.2,0.4c0.4,0.1,0.8,0.1,1.3,0.1c0.9,0,1.9-0.2,2.7-0.5c0.9-0.4,1.7-0.8,2.5-1.5c0.7-0.6,1.4-1.4,1.9-2.2
			c0.5-0.8,0.9-1.7,1.1-2.7c0.2-0.9,0.2-1.8,0-2.7C95.2,46.2,94.8,45.5,94.3,44.9z M91.3,49.7c-0.2,0.8-0.6,1.5-1.2,2
			c-0.6,0.5-1.3,0.8-2.1,0.8c-0.8,0-1.4-0.3-1.8-0.8c-0.4-0.5-0.6-1.2-0.4-2c0.2-0.8,0.5-1.5,1.2-2c0.6-0.5,1.3-0.8,2.1-0.8
			c0.8,0,1.4,0.3,1.8,0.8C91.3,48.2,91.5,48.9,91.3,49.7z"/>
		<path class="st0" d="M61.6,42.9h-0.2c-0.6,0-1.2,0.2-1.6,0.6l-0.1,0.1l-0.1-0.1c-0.9-0.5-1.9-0.7-3-0.7c-0.9,0-1.9,0.2-2.8,0.5
			c-0.9,0.4-1.7,0.9-2.4,1.5c-0.7,0.6-1.4,1.4-1.9,2.2c-0.5,0.8-0.9,1.7-1,2.7c-0.2,0.9-0.1,1.8,0.1,2.7c0.2,0.8,0.6,1.6,1.1,2.2
			c0.5,0.6,1.1,1.1,1.9,1.5c0.8,0.4,1.6,0.5,2.5,0.5c0.6,0,1.1-0.1,1.7-0.2c0.6-0.1,1.1-0.3,1.6-0.5l0.1-0.1l0.1,0.1
			c0.3,0.4,0.7,0.6,1.4,0.6h0.2c0.3,0,0.6-0.1,0.9-0.2c0.3-0.1,0.5-0.3,0.7-0.5c0.2-0.2,0.4-0.5,0.5-0.8c0.1-0.3,0.2-0.6,0.3-0.9
			l1.6-8.7c0.1-0.6,0.1-1.1-0.1-1.6C62.7,43.2,62.3,43,61.6,42.9z M58.1,49.7c-0.1,0.8-0.5,1.5-1.1,2c-0.6,0.5-1.3,0.8-2.1,0.8
			c-0.8,0-1.4-0.3-1.8-0.8c-0.4-0.5-0.6-1.2-0.4-2c0.1-0.8,0.5-1.5,1.2-2c0.6-0.5,1.3-0.8,2.1-0.8c0.8,0,1.4,0.3,1.9,0.8
			C58.1,48.2,58.3,48.9,58.1,49.7z"/>
		<path class="st0" d="M77.7,44.9c-0.5-0.6-1.1-1.1-1.9-1.5c-0.8-0.4-1.6-0.5-2.6-0.5c-0.6,0-1.2,0.1-1.8,0.2
			c-0.5,0.1-1.1,0.3-1.6,0.5l-0.1,0l-0.1-0.1c-0.3-0.4-0.8-0.6-1.3-0.6c-0.7,0-1.2,0.2-1.7,0.7c-0.5,0.4-0.8,1-0.9,1.8l-2.6,14.2
			c-0.1,0.8-0.1,1.4,0.2,1.8c0.2,0.4,0.7,0.6,1.5,0.6c0.6,0,1.1-0.2,1.5-0.6c0.5-0.4,0.8-1,0.9-1.9L68,56l0.2,0.1
			c0.4,0.2,0.8,0.3,1.2,0.4c0.4,0.1,0.8,0.1,1.3,0.1c0.9,0,1.9-0.2,2.7-0.5c0.9-0.4,1.7-0.8,2.4-1.5c0.7-0.6,1.4-1.4,1.9-2.2
			c0.5-0.8,0.9-1.7,1-2.7c0.2-0.9,0.2-1.8,0-2.7C78.6,46.2,78.2,45.5,77.7,44.9z M74.7,49.7c-0.2,0.8-0.5,1.5-1.2,2
			c-0.6,0.5-1.3,0.8-2.1,0.8c-0.8,0-1.4-0.3-1.8-0.8c-0.4-0.5-0.6-1.2-0.4-2c0.1-0.8,0.5-1.5,1.2-2c0.6-0.5,1.3-0.8,2.1-0.8
			c0.8,0,1.4,0.3,1.8,0.8C74.7,48.2,74.9,48.9,74.7,49.7z"/>
		<path class="st0" d="M47.1,43c-0.2-0.1-0.4-0.1-0.5-0.1c-0.5,0-0.9,0.1-1.3,0.4c-0.4,0.3-0.7,0.7-0.9,1.1l-2,5l-0.6-5
			c-0.1-0.4-0.2-0.8-0.6-1.1C40.8,43.2,40.4,43,40,43c-0.5,0-0.9,0.1-1.3,0.4c-0.4,0.3-0.7,0.6-0.9,1.1l-2.3,5l-0.3-5
			c0-0.5-0.2-0.8-0.5-1.1c-0.3-0.3-0.7-0.4-1.2-0.4c-0.2,0-0.4,0-0.6,0.1c-0.5,0.1-0.9,0.4-1.3,0.7c-0.4,0.4-0.6,0.8-0.6,1.2
			c0,0.2,0,0.3,0,0.5l1,9.5c0,0.2,0.1,0.4,0.1,0.5c0.1,0.2,0.1,0.3,0.2,0.5c0.1,0.1,0.3,0.2,0.4,0.3c0.2,0.1,0.5,0.1,0.8,0.2
			c0.6,0,1.2-0.1,1.6-0.4c0.4-0.3,0.8-0.7,1-1.2l2.5-5l0.1,0.5c0.1,0.4,0.1,0.8,0.2,1.3c0.1,0.5,0.2,1,0.2,1.4
			c0.1,0.5,0.1,0.8,0.2,1.2c0.1,0.4,0.1,0.5,0.1,0.6c0.1,0.4,0.3,0.8,0.6,1.1c0.3,0.3,0.8,0.5,1.4,0.6c0.6,0,1.1-0.1,1.5-0.4
			c0.3-0.3,0.6-0.7,0.9-1.2l4.2-9.4c0.1-0.2,0.1-0.3,0.2-0.5c0.1-0.5,0-0.9-0.2-1.2C47.8,43.4,47.5,43.1,47.1,43z"/>
		<path class="st0" d="M99.1,43.6c-0.1-0.1-0.2-0.2-0.4-0.2c-0.1-0.1-0.3-0.1-0.5-0.1c-0.2,0-0.3,0-0.5,0.1
			c-0.1,0.1-0.3,0.1-0.4,0.2c-0.1,0.1-0.2,0.2-0.2,0.4c-0.1,0.1-0.1,0.3-0.1,0.4c0,0.2,0,0.3,0.1,0.4c0.1,0.1,0.1,0.3,0.2,0.4
			c0.1,0.1,0.2,0.2,0.4,0.2c0.1,0.1,0.3,0.1,0.5,0.1c0.2,0,0.3,0,0.5-0.1c0.1-0.1,0.3-0.1,0.4-0.2c0.1-0.1,0.2-0.2,0.3-0.4
			c0.1-0.1,0.1-0.3,0.1-0.4c0-0.2,0-0.3-0.1-0.4C99.3,43.9,99.2,43.7,99.1,43.6z M98.1,44.7c0.1,0.1,0.2,0.1,0.3,0.1
			c0,0,0.1,0,0.1,0c0,0,0.1,0,0.1,0c0,0,0.1-0.1,0.2-0.1c0.1,0,0.1,0,0.2,0.1c0,0,0.1,0.1,0.1,0.2c0,0.1,0,0.1-0.1,0.2
			c-0.1,0.1-0.2,0.1-0.3,0.1c-0.1,0-0.2,0-0.3,0c-0.1,0-0.2,0-0.3-0.1c-0.1,0-0.2-0.1-0.3-0.2c-0.1-0.1-0.1-0.2-0.2-0.3
			c0-0.1-0.1-0.2-0.1-0.3c0-0.1,0-0.2,0.1-0.3c0-0.1,0.1-0.2,0.2-0.3c0.1-0.1,0.2-0.1,0.3-0.2c0.1,0,0.2-0.1,0.3-0.1
			c0.1,0,0.2,0,0.3,0c0.1,0,0.2,0.1,0.3,0.1c0,0,0,0.1,0.1,0.1c0,0,0,0.1,0,0.1c0,0.1,0,0.1-0.1,0.2c0,0-0.1,0.1-0.2,0.1
			c0,0-0.1,0-0.1,0c0,0-0.1,0-0.1,0c0,0-0.1,0-0.1-0.1c0,0-0.1,0-0.1,0c-0.1,0-0.2,0-0.3,0.1C98,44.3,98,44.4,98,44.5
			C98,44.6,98,44.6,98.1,44.7z"/>
	</g>
</g>
</svg>
