<?xml version="1.0" encoding="utf-8"?>
<!-- Generator: Adobe Illustrator 22.0.1, SVG Export Plug-In . SVG Version: 6.00 Build 0)  -->
<svg version="1.1" id="Capa_1" xmlns="http://www.w3.org/2000/svg" xmlns:xlink="http://www.w3.org/1999/xlink" x="0px" y="0px"
	 viewBox="0 0 180 60" style="enable-background:new 0 0 180 60;" xml:space="preserve">
<style type="text/css">
	.st0{fill:#3E50B4;}
	.st1{fill:#868686;}
	.st2{fill:#292B33;}
	.st3{opacity:0.44;fill:#1C1E23;}
	.st4{fill:#FFFFFF;}
	.st5{opacity:0.54;fill:#F5F5F5;}
</style>
<path class="st0" d="M56.9,36.3V24.1c0-5.8-3.1-11.1-8.1-14L38.2,4c-5-2.9-11.1-2.9-16.1,0l-10.6,6.1c-5,2.9-8.1,8.2-8.1,14v12.2
	c0,5.8,3.1,11.1,8.1,14l10.6,6.1c5,2.9,11.1,2.9,16.1,0l10.6-6.1C53.8,47.4,56.9,42,56.9,36.3z"/>
<g>
	<g>
		<path class="st1" d="M146.2,44.3c-1.7,0-3.4-0.4-5-1.3c-1.6-0.9-2.9-2.1-3.9-3.6c0,0,0,0,0,0c-0.2,1-0.6,1.9-1.2,2.7
			c-0.7,0.9-2.1,2.1-4.5,2.1c-1.8,0-3.3-0.7-4.3-1.9l-0.1-0.1c-0.9-1.2-1.4-2.6-1.4-4.1v-9.1c0-0.4-0.1-0.8-0.2-1c0,0-0.1,0-0.4,0
			c-0.2,0-0.2,0-0.3,0.1c-0.2,0.2-0.2,0.4-0.2,0.6V38c0,1.6-0.5,2.9-1.3,4.1c-0.7,0.9-2.1,2.1-4.5,2.1c-1.8,0-3.3-0.7-4.3-1.9
			l-0.1-0.1c-0.6-0.8-1-1.8-1.2-2.8c-0.1,0.1-0.2,0.2-0.3,0.4c-1.1,1.3-2.5,2.5-4.4,3.4l-0.2,0.1c-0.8,0.3-1.7,0.6-2.6,0.8
			c-1,0.2-1.9,0.3-2.9,0.3c-1.9,0-3.7-0.4-5.5-1c-1.4-0.6-2.6-1.4-3.7-2.5c-0.3,0.6-0.6,1.1-1.1,1.5l-0.2,0.1
			c-1.1,0.9-2.5,1.4-4,1.4H73.4l-0.8-0.5c-0.4-0.2-0.6-0.4-0.8-0.5l-0.1-0.1c-1.1-0.9-1.7-2.2-1.7-3.6c0-0.6,0.1-1.3,0.3-1.9
			l0.1-0.2l0.8-1.4l5.2-7.1h-0.5c-1.4,0-2.7-0.4-3.9-1.3l-0.2-0.1c-0.8-0.7-1.8-2-1.8-4.2c0-1.7,0.6-3.1,1.8-4.1
			c1.1-0.9,2.5-1.4,4-1.4h12.3c1.2,0,2.4,0.4,3.4,1.1c0.2,0.1,0.3,0.2,0.5,0.4c1.1-1.2,2.5-1.8,4.2-1.8c1.8,0,3.3,0.7,4.3,1.9
			c1,1.1,1.5,2.6,1.5,4.2v8.9c0,0.2,0,0.4,0,0.5c0,0,0.1,0.1,0.1,0.1c0.1,0.1,0.2,0.2,0.4,0.2c0,0,0.2,0,0.5-0.2c0,0,0,0,0,0
			c0-0.2,0.1-0.4,0.1-0.5v-8.9c0-1.6,0.5-3,1.4-4.2c0.8-0.9,2.1-2,4.4-2c1.7,0,3.2,0.7,4.3,1.9c0.2,0.3,0.4,0.5,0.6,0.8
			c0.1-0.2,0.2-0.3,0.3-0.4c1-1.5,2.6-2.3,4.5-2.3c1.4,0,2.5,0.4,3.5,1.1l0,0c0.3-0.2,0.7-0.3,1-0.5c1.3-0.5,2.6-0.7,4-0.7
			c1.4,0,2.6,0.2,3.7,0.5c1.3,0.4,2.4,1,3.5,2c1,0.9,1.8,2,2.3,3.2c0.7-1.1,1.6-2.1,2.5-3c1-0.9,2.2-1.6,3.5-2.1
			c1.4-0.5,2.8-0.8,4.2-0.8c0.6,0,1.3,0.1,1.9,0.2v-3c0-1.6,0.5-3,1.4-4.2c0.7-0.9,2.1-2,4.4-2c1.7,0,3.2,0.7,4.3,1.9
			c0.2,0.3,0.5,0.6,0.7,1c0.2-0.3,0.4-0.6,0.7-0.9c1.2-1.3,2.8-2,4.6-2c1.7,0,3.2,0.6,4.5,1.8c1.2,1.2,1.9,2.8,1.9,4.5
			c0,1.6-0.6,3.2-1.8,4.4c-0.1,0.1-0.2,0.2-0.2,0.2c1,1.1,1.5,2.6,1.5,4.2V38c0,1.6-0.5,2.9-1.3,4.1c-0.7,0.9-2.1,2.1-4.5,2.1
			c-1.8,0-3.3-0.7-4.3-1.9l-0.1-0.1c-0.2-0.3-0.4-0.6-0.6-1c-0.2,0.3-0.4,0.7-0.6,0.9c-1,1.4-2.6,2.1-4.5,2.1
			c-1.4,0-2.6-0.4-3.5-1.1c-0.2,0.1-0.4,0.2-0.5,0.3C149.2,44,147.7,44.3,146.2,44.3z M137.1,38.9l0.1,0.2c0,0,0,0.1,0.1,0.1
			c0,0,0,0.1,0.1,0.1c1,1.5,2.3,2.7,3.9,3.5c1.6,0.9,3.3,1.3,5,1.3c1.5,0,3-0.3,4.2-0.9c0.2-0.1,0.4-0.2,0.6-0.3l0,0l0,0
			c0.9,0.7,2.1,1,3.4,1c1.8,0,3.3-0.7,4.3-2.1c0.2-0.3,0.5-0.7,0.6-1.1l0.1-0.2l0.1,0.2c0.2,0.4,0.4,0.8,0.7,1.1l0.1,0.1
			c1.1,1.2,2.5,1.9,4.2,1.9c2.3,0,3.7-1.1,4.4-2c0.9-1.1,1.3-2.5,1.3-4V23.3c0-1.6-0.5-3-1.5-4.1c0,0,0,0,0,0l-0.1-0.1l0.1-0.1
			c0.1-0.1,0.2-0.2,0.3-0.3c1.1-1.2,1.7-2.7,1.7-4.3c0-1.7-0.6-3.2-1.8-4.4c-1.2-1.2-2.7-1.8-4.3-1.8c-1.8,0-3.3,0.7-4.5,2
			c-0.3,0.3-0.5,0.6-0.7,0.9l-0.1,0.1l-0.1-0.1c-0.2-0.4-0.4-0.7-0.7-1c-1.1-1.2-2.5-1.9-4.2-1.9c-2.2,0-3.5,1.1-4.3,1.9
			c-0.9,1.1-1.4,2.5-1.4,4.1v3.2l-0.1,0c-0.7-0.2-1.4-0.2-2-0.2c-1.4,0-2.8,0.3-4.1,0.8c-1.3,0.5-2.5,1.2-3.5,2.1
			c-1,0.9-1.9,1.9-2.6,3.1l-0.1,0.1l-0.1-0.2c-0.5-1.3-1.3-2.4-2.3-3.3c-1-1-2.2-1.6-3.4-2c-1.1-0.4-2.3-0.5-3.7-0.5
			c-1.4,0-2.7,0.2-3.9,0.7c-0.4,0.1-0.7,0.3-1,0.5l0,0l-0.1-0.1c-0.9-0.7-2-1.1-3.4-1.1c-1.8,0-3.4,0.8-4.4,2.2
			c-0.1,0.2-0.2,0.3-0.3,0.5l-0.1,0.1l-0.1-0.1c-0.2-0.3-0.4-0.6-0.6-0.9c-1.1-1.2-2.5-1.9-4.2-1.9c-2.2,0-3.6,1.1-4.3,1.9
			c-0.9,1.1-1.4,2.5-1.4,4.1v8.9c0,0.2,0,0.4-0.1,0.6l0,0c0,0,0,0,0,0l0,0c-0.3,0.2-0.5,0.3-0.6,0.3c-0.2,0-0.3,0-0.5-0.2
			c-0.1-0.1-0.1-0.1-0.1-0.1l0,0l0,0c0-0.1,0-0.3,0-0.5v-8.9c0-1.6-0.5-3-1.5-4.1c-1.1-1.2-2.5-1.9-4.2-1.9c-1.7,0-3.1,0.6-4.1,1.8
			l-0.1,0.1l-0.1-0.1c-0.2-0.2-0.3-0.3-0.5-0.5c-1-0.7-2.1-1.1-3.3-1.1H75.8c-1.5,0-2.9,0.5-3.9,1.4c-1.2,1-1.8,2.4-1.8,4
			c0,2.1,1,3.4,1.8,4.1l0.2,0.1c1.1,0.8,2.4,1.2,3.8,1.2h0.8l-5.4,7.4L70.5,37l-0.1,0.2c-0.2,0.6-0.3,1.2-0.3,1.8
			c0,1.4,0.6,2.6,1.7,3.5l0.1,0.1c0.2,0.1,0.4,0.3,0.8,0.5l0.8,0.5h14.7c1.5,0,2.9-0.5,3.9-1.4l0.2-0.1c0.5-0.5,0.8-1,1.1-1.6l0-0.1
			l0.1,0.1c1.1,1.1,2.3,2,3.7,2.5c1.7,0.7,3.5,1,5.4,1c0.9,0,1.9-0.1,2.8-0.3c0.9-0.2,1.8-0.5,2.6-0.8l0.2-0.1
			c1.8-0.9,3.3-2.1,4.3-3.4c0.1-0.1,0.2-0.3,0.3-0.5l0.1-0.2l0,0.2c0.2,1.1,0.6,2,1.2,2.9l0.1,0.1c1.1,1.2,2.5,1.9,4.2,1.9
			c2.3,0,3.7-1.1,4.4-2c0.9-1.1,1.3-2.5,1.3-4v-9.4c0-0.3,0.1-0.5,0.3-0.7c0.1-0.1,0.2-0.2,0.4-0.2c0.3,0,0.5,0,0.5,0.1
			c0.2,0.2,0.3,0.6,0.3,1.1V38c0,1.5,0.4,2.9,1.3,4l0.1,0.1c1.1,1.2,2.5,1.9,4.2,1.9c2.3,0,3.7-1.1,4.4-2c0.6-0.8,1.1-1.8,1.2-2.8
			L137.1,38.9z M90.5,33.4l-0.1,0c-0.7-0.3-1.5-0.4-2.3-0.4h-1.3l3.7-5v5c0,0.1,0,0.1,0,0.2c0,0,0,0.1,0,0.1L90.5,33.4z M87.1,32.8
			h1c0.8,0,1.5,0.1,2.2,0.4c0,0,0,0,0,0c0-0.1,0-0.1,0-0.2v-4.5L87.1,32.8z M147.4,32.9c-0.5,0-0.7-0.1-0.9-0.4l0,0
			c-0.4-0.7-0.7-1.4-0.7-2.1c0-0.8,0.2-1.5,0.6-2.1c0.2-0.3,0.4-0.5,0.9-0.5c0.3,0,0.5,0,0.9,0.6c0.4,0.5,0.5,1.2,0.5,2
			c0,0.8-0.2,1.4-0.6,2.1C147.8,32.9,147.6,32.9,147.4,32.9z M146.6,32.4c0.2,0.2,0.3,0.3,0.8,0.3c0.2,0,0.4,0,0.7-0.5
			c0.4-0.6,0.5-1.2,0.5-2c0-0.8-0.2-1.4-0.5-1.9c-0.3-0.5-0.5-0.5-0.7-0.5c-0.4,0-0.6,0.1-0.8,0.4c-0.4,0.6-0.6,1.2-0.6,2
			C146,31.1,146.2,31.7,146.6,32.4z M160.1,19.6v-1l0.1,0.1c0,0,0,0,0,0.1c0,0,0,0,0.1,0.1c0,0,0.1,0.1,0.1,0.1l0.1,0.1l-0.1,0.1
			c0,0-0.1,0.1-0.1,0.2h0c0,0,0,0.1-0.1,0.1L160.1,19.6z M160.3,19v0.1C160.3,19.1,160.3,19,160.3,19C160.3,19,160.3,19,160.3,19z"
			/>
	</g>
	<g>
		<g>
			<path class="st2" d="M81.6,35.6h6.5c0.8,0,1.5,0.2,2.1,0.7c0.6,0.5,0.9,1.1,0.9,2c0,0.8-0.3,1.4-0.9,2C89.7,40.8,89,41,88.1,41
				H75.8h-0.7h-0.5h-0.5c-0.1-0.1-0.2-0.1-0.2-0.1c-0.3-0.2-0.5-0.3-0.6-0.4c-0.5-0.4-0.7-0.9-0.7-1.5c0-0.3,0.1-0.6,0.2-0.9
				l0.5-0.9l8.4-11.6h-6c-0.8,0-1.5-0.2-2.2-0.7c-0.6-0.5-0.9-1.2-0.9-2.1c0-0.8,0.3-1.5,0.9-2c0.6-0.5,1.3-0.7,2.2-0.7h12.3
				c0.6,0,1.2,0.2,1.7,0.6c0.5,0.4,0.8,0.9,0.8,1.5c0,0.5-0.1,0.9-0.2,1.1c-0.1,0.3-0.3,0.7-0.6,1.1L81.6,35.6z"/>
		</g>
		<g>
			<path class="st2" d="M111.9,23.3v9.6v0.8c0,0.3,0,0.6,0,0.9c0,0.2-0.1,0.7-0.3,1.3c-0.2,0.6-0.6,1.3-1.1,2c-0.8,1-2,1.9-3.5,2.7
				c-0.7,0.3-1.4,0.5-2.2,0.7c-0.8,0.2-1.5,0.2-2.3,0.2c-1.5,0-3-0.3-4.4-0.8c-1.4-0.6-2.6-1.5-3.5-2.7c-0.4-0.6-0.8-1.4-1.2-2.3
				c-0.1-0.4-0.2-0.9-0.2-1.3c-0.1-0.4-0.1-0.9-0.1-1.4v-9.6c0-0.9,0.3-1.7,0.8-2.4c0.5-0.6,1.3-1,2.2-1c0.9,0,1.7,0.3,2.2,0.9
				c0.5,0.6,0.8,1.4,0.8,2.4v8.9c0,0.7,0.1,1.2,0.2,1.5c0.1,0.3,0.4,0.7,0.8,1.1c0.7,0.7,1.5,1,2.4,1c0.8,0,1.6-0.3,2.4-1
				c0.3-0.3,0.6-0.7,0.7-1.1c0.1-0.5,0.2-1,0.2-1.5v-8.9c0-0.9,0.3-1.7,0.8-2.4c0.5-0.6,1.3-1,2.2-1c0.9,0,1.6,0.3,2.2,0.9
				C111.6,21.5,111.9,22.3,111.9,23.3z"/>
		</g>
		<g>
			<path class="st2" d="M121.5,22c0.8-0.7,1.6-1.3,2.5-1.6s1.9-0.5,3-0.5c1.1,0,2.1,0.1,2.9,0.4c0.9,0.2,1.7,0.7,2.5,1.4
				c0.8,0.6,1.3,1.4,1.6,2.4c0.3,1,0.5,2.1,0.5,3.4V38c0,0.9-0.3,1.7-0.8,2.4c-0.5,0.7-1.3,1-2.3,1c-0.9,0-1.7-0.3-2.2-0.9
				c-0.5-0.7-0.8-1.5-0.8-2.4v-9.1c0-1.1-0.3-2-0.9-2.7c-0.6-0.7-1.4-1.1-2.6-1.1c-1,0-1.8,0.4-2.4,1.1c-0.6,0.7-0.9,1.5-0.9,2.5V38
				c0,0.9-0.3,1.7-0.8,2.4c-0.5,0.7-1.3,1-2.3,1c-0.9,0-1.7-0.3-2.2-0.9c-0.5-0.7-0.8-1.5-0.8-2.4V23.5c0-0.9,0.2-1.8,0.7-2.5
				c0.5-0.7,1.2-1.1,2.2-1.1c0.7,0,1.3,0.2,1.8,0.5C120.7,20.8,121.1,21.3,121.5,22z"/>
		</g>
		<g>
			<path class="st2" d="M151.5,21.7v-7.5c0-0.9,0.3-1.7,0.8-2.4c0.5-0.6,1.3-1,2.2-1c0.9,0,1.6,0.3,2.2,0.9c0.5,0.6,0.8,1.4,0.8,2.4
				v23.6c0,1-0.3,1.8-0.8,2.4c-0.5,0.7-1.2,1-2.2,1c-0.8,0-1.5-0.2-1.9-0.6c-0.4-0.4-0.8-1-1.1-1.8c-0.6,0.8-1.3,1.5-2.2,1.9
				c-0.9,0.4-1.9,0.6-3.1,0.6c-1.3,0-2.5-0.3-3.7-1c-1.2-0.7-2.2-1.6-3-2.7c-0.8-1.1-1.4-2.4-1.8-3.7l-0.4-1.9l-0.2-2.1
				c0-1.4,0.3-2.8,1-4.3c0.6-1.5,1.6-2.7,2.7-3.7c0.8-0.7,1.7-1.2,2.7-1.6c1-0.4,2.1-0.6,3.2-0.6c0.7,0,1.6,0.2,2.4,0.5
				c0.2,0.1,0.5,0.2,0.6,0.3c0.2,0.1,0.3,0.2,0.5,0.3C150.5,21,150.9,21.3,151.5,21.7z M143.2,30.4c0,1.3,0.4,2.5,1.1,3.6
				c0.7,1,1.8,1.6,3.1,1.6c1.2,0,2.2-0.6,3-1.7c0.7-1.1,1-2.3,1-3.6c0-1.3-0.3-2.5-1-3.5c-0.7-1.2-1.8-1.7-3.1-1.7
				c-1.3,0-2.3,0.5-3.1,1.6C143.6,27.8,143.2,29,143.2,30.4z"/>
		</g>
		<g>
			<path class="st2" d="M161.2,14.4c0-0.9,0.3-1.7,1-2.4c0.7-0.7,1.5-1.1,2.5-1.1c1,0,1.8,0.3,2.5,1c0.7,0.7,1,1.5,1,2.5
				c0,0.9-0.3,1.8-1,2.5c-0.7,0.7-1.5,1.1-2.5,1.1c-1,0-1.8-0.3-2.5-1C161.5,16.3,161.2,15.4,161.2,14.4z M161.6,38V23.3
				c0-0.9,0.3-1.7,0.8-2.4c0.5-0.6,1.3-1,2.2-1c0.9,0,1.7,0.3,2.2,0.9c0.5,0.6,0.8,1.4,0.8,2.4V38c0,0.9-0.3,1.7-0.8,2.4
				s-1.3,1-2.3,1c-0.9,0-1.7-0.3-2.2-0.9C161.9,39.7,161.6,38.9,161.6,38z"/>
		</g>
	</g>
</g>
<path class="st3" d="M42.7,34.2C41.6,33.4,40.3,33,39,33h-1.1l4.9-6.7c0.5-0.6,0.8-1.2,1-1.8c0.3-0.6,0.4-1.3,0.4-2.1
	c0-1.5-0.7-2.8-1.8-3.7c-1-0.7-2.1-1.1-3.4-1.1h-8v1.8l7.3-0.2c0.6,0,1.9,1.4,2.4,1.8c0.5,0.4,0.8,0.9,0.8,1.5
	c0,0.5-0.1,0.9-0.2,1.1c-0.1,0.3-0.3,0.7-0.6,1.1l-8.1,9.8l6.2-0.1c0.8,0,1.8,1.6,2.4,2.1c0.6,0.5,0.9,1.1,0.9,2
	c0,0.8-0.3,1.4-0.9,2c-0.6,0.5-1.3,0.7-2.2,0.7h-8l-3.9,1.8l11.9,1c1.5,0,2.9-0.5,4-1.4l0.2-0.1c1.1-1.1,1.7-2.5,1.7-3.9
	C44.7,36.7,44,35.2,42.7,34.2z"/>
<path class="st4" d="M40.9,33.7c-1.1-0.8-2.4-1.3-3.7-1.3H36l4.9-6.7c0.5-0.6,0.8-1.2,1-1.8c0.3-0.6,0.4-1.3,0.4-2.1
	c0-1.5-0.7-2.8-1.8-3.7c-1-0.7-2.1-1.1-3.4-1.1H24.8c-1.5,0-2.9,0.5-4,1.4c-1.2,1-1.8,2.4-1.8,4c0,2.1,1,3.4,1.8,4.1l0.2,0.1
	c1.1,0.8,2.4,1.2,3.8,1.2h0.7l-5.3,7.2l-0.8,1.4l-0.1,0.2C19.1,37.4,19,38,19,38.6c0,1.4,0.6,2.7,1.7,3.6l0.1,0.1
	c0.2,0.1,0.4,0.3,0.8,0.5l0.8,0.5h14.7c1.5,0,2.9-0.5,4-1.4l0.2-0.1c1.1-1.1,1.7-2.5,1.7-3.9C42.9,36.1,42.2,34.7,40.9,33.7z
	 M39.3,39.9c-0.6,0.5-1.3,0.7-2.2,0.7H24.9h-0.7h-0.5h-0.5c-0.1-0.1-0.2-0.1-0.2-0.1c-0.3-0.2-0.5-0.3-0.6-0.4
	c-0.5-0.4-0.7-0.9-0.7-1.5c0-0.3,0.1-0.6,0.2-0.9l0.5-0.9l8.4-11.6h-6c-0.8,0-1.5-0.2-2.2-0.7c-0.6-0.5-0.9-1.2-0.9-2.1
	c0-0.8,0.3-1.5,0.9-2c0.6-0.5,1.3-0.7,2.2-0.7h12.3c0.6,0,1.2,0.2,1.7,0.6c0.5,0.4,0.8,0.9,0.8,1.5c0,0.5-0.1,0.9-0.2,1.1
	c-0.1,0.3-0.3,0.7-0.6,1.1l-8.1,11.1h6.5c0.8,0,1.5,0.2,2.1,0.7c0.6,0.5,0.9,1.1,0.9,2C40.2,38.6,39.9,39.3,39.3,39.9z"/>
<path class="st5" d="M48.9,14.3L34.8,5.5c-2.8-1.7-6.2-1.7-8.9,0l-14.1,8.8c-2.8,1.7-4.5,4.9-4.5,8.4v1.5c0-3.5,1.7-6.7,4.5-8.4
	L25.9,7c2.8-1.7,6.2-1.7,8.9,0l14.1,8.8c2.8,1.7,4.5,4.9,4.5,8.4v-1.5C53.3,19.2,51.6,16,48.9,14.3z"/>
</svg>
